<?xml version="1.0" encoding="UTF-8"?>
<svg width="241px" height="38px" viewBox="0 0 241 38" version="1.1" xmlns="http://www.w3.org/2000/svg" xmlns:xlink="http://www.w3.org/1999/xlink">
    <title>logo-dark</title>
    <g id="Page-1" stroke="none" stroke-width="1" fill="none" fill-rule="evenodd">
        <g id="logo-dark" fill-rule="nonzero">
            <polygon id="Path" fill="#0F52BA" points="67.45 11.76 75.73 11.76 81.3 23.59 81.3 23.59 85.8 11.76 91.14 11.76 85 28.05 76.74 28.05 71.17 16.21 71.17 16.21 66.67 28.05 61.33 28.05"></polygon>
            <path d="M90.22,21.68 C91.85,17.34 94.52,16.39 97.88,16.39 L101.1,16.39 C106.01,16.39 107.67,17.39 106.17,21.34 L105.44,23.28 L94.23,23.28 L94,24 C93.54,25.21 94.33,25.55 96.26,25.55 L97.67,25.55 C100.17,25.55 100.53,24.92 100.79,24.24 L105.11,24.24 L104.93,24.74 C103.84,27.62 100.87,28.25 97.52,28.25 L94,28.25 C91,28.25 87.93,27.71 89.77,22.8 L90.22,21.68 Z M101.93,20.68 C102.45,19.31 101.87,19.06 99.18,19.06 C96.18,19.06 95.71,19.31 95.18,20.68 L101.93,20.68 Z" id="Shape" fill="#0F52BA"></path>
            <polygon id="Path" fill="#0F52BA" points="112.31 22 109.55 16.55 115.55 16.55 116.74 19.66 120.27 16.55 126.27 16.55 119.38 22 122.38 28 116.54 28 115 24.18 110.61 28.05 104.8 28.05"></polygon>
            <path d="M128.34,19.68 L126,19.68 L127.16,16.57 L129.47,16.57 L130.47,13.87 L135.08,13.87 L134.08,16.57 L141.25,16.57 L140.08,19.68 L133,19.68 L131.34,24.09 C131.02,24.94 131.63,25.09 132.73,25.09 C134.22,25.09 134.73,24.78 135.15,23.72 L135.44,22.96 L139.44,22.96 L138.92,24.35 C138.1,26.53 135.92,28.2 132.26,28.2 L130.43,28.2 C127.59,28.2 125.43,27.37 126.65,24.2 L128.34,19.68 Z" id="Path" fill="#0F52BA"></path>
            <path d="M142.5,20.89 C143.83,17.34 146.14,16.39 149.81,16.39 L152.51,16.39 C154.84,16.39 155.29,16.66 155.89,18.15 L155.89,18.15 L156.49,16.57 L160.82,16.57 L156.77,27.33 C155.87,29.71 154.18,32.05 148.38,32.05 L143.28,32.05 C140.18,32.05 138.69,31.36 139.77,28.48 L144.53,28.48 C144.33,29.02 144.59,29.35 145.33,29.35 L148.68,29.35 C150.68,29.35 151.91,28.75 152.68,26.81 L152.96,26.05 C151.73,26.9 150.83,27.24 148.38,27.24 L146,27.24 C141.53,27.24 140.79,25.57 142,22.47 L142.5,20.89 Z M150.82,24.13 C153.11,24.13 153.82,23.57 154.5,21.84 C155.18,20.11 154.85,19.5 152.57,19.5 L150.31,19.5 C148.02,19.5 147.31,20.08 146.61,21.84 C145.91,23.6 146.28,24.13 148.56,24.13 L150.82,24.13 Z" id="Shape" fill="#0F52BA"></path>
            <path d="M161.53,21.68 C163.16,17.34 165.83,16.39 169.2,16.39 L172.42,16.39 C177.32,16.39 178.98,17.39 177.48,21.34 L176.75,23.28 L165.55,23.28 L165.28,23.98 C164.83,25.19 165.61,25.53 167.54,25.53 L169,25.53 C171.5,25.53 171.85,24.9 172.11,24.22 L176.44,24.22 L176.25,24.72 C175.17,27.6 172.19,28.23 168.84,28.23 L165.38,28.23 C162.33,28.23 159.31,27.69 161.16,22.78 L161.53,21.68 Z M173.24,20.68 C173.76,19.31 173.18,19.06 170.49,19.06 C167.49,19.06 167.03,19.31 166.49,20.68 L173.24,20.68 Z" id="Shape" fill="#0F52BA"></path>
            <path d="M181.87,16.57 L186.49,16.57 L185.79,18.42 L185.84,18.42 C187.26,16.82 189.03,16.42 191.51,16.42 C194.37,16.42 198.32,16.53 196.45,21.49 L194,28.05 L189.39,28.05 L191.87,21.46 C192.29,20.33 191.54,19.77 189.52,19.77 L188.46,19.77 C186.693017,19.6036889 185.027738,20.621586 184.37,22.27 L182.2,28.05 L177.58,28.05 L181.87,16.57 Z" id="Path" fill="#0F52BA"></path>
            <polygon id="Path" fill="#F79720" points="203.78 11.76 209.12 11.76 203 28.05 197.66 28.05"></polygon>
            <path d="M213.21,11.76 L229.32,11.76 C234.65,11.76 235.91,13.4 234.4,17.43 L232.53,22.38 C231.02,26.38 228.53,28.05 223.19,28.05 L207.08,28.05 L213.21,11.76 Z M213.99,23.86 L223.46,23.86 C225.75,23.86 226.87,23.26 227.74,20.94 L228.57,18.73 C229.44,16.41 228.78,15.81 226.49,15.81 L217,15.81 L213.99,23.86 Z" id="Shape" fill="#F79720"></path>
            <polygon id="Path" fill="#F79720" points="21.47 0.94 13.71 19.17 8.48 10.06"></polygon>
            <polygon id="Path" fill="#F79720" points="13.71 19.17 5.96 37.4 0.72 28.29"></polygon>
            <polygon id="Path" fill="#F79720" points="58.98 0.94 51.22 19.17 64.22 10.06"></polygon>
            <polygon id="Path" fill="#F79720" points="51.22 19.17 43.47 37.4 56.46 28.29"></polygon>
            <polygon id="Path" fill="#F79720" points="26.32 21.07 19.45 37.24 32.91 37.24"></polygon>
            <polygon id="Path" fill="#F79720" points="38.73 17.19 45.61 1.02 32.15 1.02"></polygon>
            <path d="M237.85,15.19 L237.85,13.94 L238.54,13.94 C239,13.94 239.28,14.16 239.28,14.55 C239.28,14.94 239,15.19 238.54,15.19 L237.85,15.19 Z M239.59,14.55 C239.59,13.98 239.22,13.66 238.54,13.66 L237.54,13.66 L237.54,16.31 L237.86,16.31 L237.86,15.47 L238.71,15.47 L239.26,16.32 L239.64,16.32 L239,15.4 C239.373165,15.2921696 239.619478,14.9373121 239.59,14.55 M238.48,17.27 C237.263169,17.2587272 236.282206,16.269967 236.280559,15.0530847 C236.278929,13.8362024 237.257225,12.8448038 238.474021,12.830254 C239.690818,12.8157041 240.692541,13.7834264 240.72,15 C240.72,15.5931695 240.483688,16.1618994 240.063317,16.5803942 C239.642945,16.998889 239.073164,17.23266 238.48,17.23 M238.48,12.4599222 C237.079433,12.4981816 235.972007,13.659192 236,15.06 C235.994649,15.733541 236.25916,16.3811923 236.7345,16.8584112 C237.20984,17.3356301 237.856443,17.6026941 238.53,17.600079 C239.924242,17.5511375 241.022654,16.3949139 241,15 C241.002671,14.3255348 240.735923,13.6779227 240.259,13.201 C239.782077,12.7240773 239.134465,12.4573288 238.46,12.4599222" id="Shape" fill="#F38020"></path>
            <path d="M64.61,3.72 L64.61,2.47 L65.3,2.47 C65.76,2.47 66.04,2.68 66.04,3.08 C66.04,3.48 65.76,3.72 65.3,3.72 L64.61,3.72 Z M66.35,3.07 C66.35,2.51 65.98,2.18 65.35,2.18 L64.35,2.18 L64.35,4.83 L64.67,4.83 L64.67,4 L65.52,4 L66.07,4.84 L66.45,4.84 L65.82,3.94 C66.1947028,3.82811502 66.440482,3.46986056 66.41,3.08 M65.24,5.79 C64.6470761,5.80356679 64.0740021,5.57607483 63.6518142,5.15954124 C63.2296263,4.74300765 62.9944286,4.17305296 63,3.58 C63.0785502,2.40896876 64.0513372,1.49924812 65.225,1.49924812 C66.3986628,1.49924812 67.3714498,2.40896876 67.45,3.58 C67.4473538,4.17143462 67.2098664,4.73759374 66.7897836,5.15392579 C66.3697008,5.57025783 65.8014346,5.80265812 65.21,5.80008796 M65.21,1.03 C64.1718864,1.02189729 63.2316627,1.64154187 62.8297014,2.59871086 C62.42774,3.55587984 62.6436371,4.66103525 63.376273,5.39655553 C64.1089089,6.1320758 65.2132074,6.35231369 66.1719484,5.95411639 C67.1306895,5.5559191 67.7540236,4.61813738 67.75,3.58 C67.7667471,2.1793183 66.6505145,1.0273662 65.25,1" id="Shape" fill="#F38020"></path>
        </g>
    </g>
</svg>